<svg aria-hidden="true" style="position: absolute; width: 0; height: 0; overflow: hidden;" version="1.1" xmlns="http://www.w3.org/2000/svg" xmlns:xlink="http://www.w3.org/1999/xlink">
<defs>
<symbol id="icon-logo" viewBox="0 0 85 32">
<path fill="#fff" style="fill: var(--color1, #fff)" d="M15.861 0.557h52.313v6.957h0.557v-7.513h-53.426v7.513h0.557v-6.957zM15.861 24.209h-0.557v7.791h53.426v-7.791h-0.557v7.235h-52.313v-7.235z"></path>
<path fill="#fff" style="fill: var(--color1, #fff)" d="M4.107 15.121v5.366l1.631 0.173v0.46h-5.738v-0.46l1.631-0.173v-11.538l-1.631-0.211v-0.441h9.564v2.741h-0.6l-0.712-2.032-4.145-0.057v5.481h3.657l0.582-1.418h0.544v3.565h-0.563l-0.563-1.457h-3.657zM19.229 19.95c-0.875 0.92-2.069 1.38-3.582 1.38s-2.707-0.46-3.582-1.38-1.313-2.089-1.313-3.507c0-1.418 0.438-2.588 1.313-3.507s2.069-1.38 3.582-1.38c1.513 0 2.707 0.46 3.582 1.38s1.313 2.089 1.313 3.507-0.438 2.587-1.313 3.507zM13.359 16.443c0 2.951 0.762 4.427 2.288 4.427s2.288-1.476 2.288-4.427c0-1.444-0.169-2.536-0.506-3.277-0.338-0.754-0.931-1.131-1.781-1.131s-1.444 0.377-1.781 1.131c-0.338 0.741-0.506 1.833-0.506 3.277zM30.473 19.95c-0.875 0.92-2.069 1.38-3.582 1.38s-2.707-0.46-3.582-1.38c-0.875-0.92-1.313-2.089-1.313-3.507s0.437-2.588 1.313-3.507c0.875-0.92 2.069-1.38 3.582-1.38s2.707 0.46 3.582 1.38c0.875 0.92 1.313 2.089 1.313 3.507s-0.437 2.587-1.313 3.507zM24.604 16.443c0 2.951 0.762 4.427 2.288 4.427s2.288-1.476 2.288-4.427c0-1.444-0.169-2.536-0.506-3.277-0.338-0.754-0.931-1.131-1.781-1.131s-1.444 0.377-1.782 1.131c-0.338 0.741-0.506 1.833-0.506 3.277zM37.217 21.407c-1.138 0-2.082-0.39-2.832-1.169s-1.125-1.955-1.125-3.527 0.444-2.811 1.331-3.718c0.9-0.907 2.094-1.361 3.582-1.361 0.775 0 1.507 0.185 2.194 0.556v-4.868l-1.613-0.115v-0.479l4.013-0.326v14.279l1.594 0.077 0.019 0.441-3.919 0.23 0.038-1.725h-0.113c-0.313 0.537-0.756 0.958-1.331 1.265-0.529 0.278-1.156 0.441-1.821 0.441-0.006 0-0.012 0-0.017-0h0.001zM40.349 18.168v-5.271c-0.5-0.473-1.138-0.709-1.913-0.709-0.988 0-1.663 0.466-2.025 1.399-0.3 0.818-0.45 1.859-0.45 3.124 0 2.721 0.594 4.082 1.781 4.082 0.7 0 1.306-0.307 1.819-0.92 0.525-0.613 0.788-1.182 0.788-1.706zM45.296 11.134v-2.817l10.914-0.038v0.594l-8.101 11.27 6.77 0.038 0.656-2.108h0.619v2.798l-11.121 0.038v-0.537l8.176-11.327-6.638-0.038-0.656 2.128h-0.619zM63.862 14.431c0-1.559-0.531-2.338-1.594-2.338-1.113 0-1.788 0.996-2.025 2.99h3.582c0.025-0.256 0.037-0.473 0.037-0.652zM62.099 21.33c-1.338 0-2.425-0.447-3.263-1.342-0.825-0.894-1.238-2.076-1.238-3.546s0.431-2.651 1.294-3.546c0.875-0.895 1.981-1.342 3.319-1.342s2.338 0.294 3 0.882c0.663 0.575 0.994 1.38 0.994 2.415 0 0.294-0.025 0.601-0.075 0.92h-5.945v0.671c0 1.431 0.175 2.517 0.525 3.258 0.35 0.728 0.875 1.092 1.575 1.092 0.713 0 1.357-0.147 1.932-0.441 0.588-0.307 1.044-0.735 1.369-1.284 0.275 0.090 0.412 0.224 0.412 0.403 0 0.319-0.294 0.69-0.881 1.111-0.288 0.205-0.7 0.383-1.238 0.537-0.525 0.141-1.119 0.211-1.782 0.211zM71.009 14.028c0.213-0.69 0.6-1.278 1.163-1.763 0.575-0.486 1.094-0.729 1.556-0.729 0.475 0 0.794 0.121 0.956 0.364 0.162 0.23 0.244 0.422 0.244 0.575 0 0.524-0.188 0.901-0.562 1.131-0.25-0.205-0.625-0.307-1.125-0.307-0.487 0-0.975 0.16-1.463 0.479-0.487 0.307-0.731 0.645-0.731 1.016v5.769l1.688 0.115v0.441h-5.232v-0.441l1.238-0.096v-8.183l-1.519-0.077v-0.441l3.826-0.211-0.112 2.357h0.075zM84.113 19.95c-0.875 0.92-2.069 1.38-3.582 1.38s-2.707-0.46-3.582-1.38-1.313-2.089-1.313-3.507c0-1.418 0.437-2.588 1.313-3.507s2.069-1.38 3.582-1.38c1.513 0 2.707 0.46 3.582 1.38s1.313 2.089 1.313 3.507-0.438 2.587-1.313 3.507zM78.244 16.443c0 2.951 0.763 4.427 2.288 4.427s2.288-1.476 2.288-4.427c0-1.444-0.169-2.536-0.506-3.277-0.338-0.754-0.932-1.131-1.782-1.131s-1.444 0.377-1.781 1.131c-0.338 0.741-0.506 1.833-0.506 3.277z"></path>
</symbol>
<symbol id="icon-logo2x" viewBox="0 0 85 32">
<path fill="#fff" style="fill: var(--color1, #fff)" d="M15.861 0.557h52.313v6.957h0.557v-7.513h-53.426v7.513h0.557v-6.957zM15.861 24.209h-0.557v7.791h53.426v-7.791h-0.557v7.235h-52.313v-7.235z"></path>
<path fill="#fff" style="fill: var(--color1, #fff)" d="M4.107 15.121v5.366l1.631 0.173v0.46h-5.738v-0.46l1.631-0.173v-11.538l-1.631-0.211v-0.441h9.564v2.741h-0.6l-0.712-2.032-4.145-0.057v5.481h3.657l0.582-1.418h0.544v3.565h-0.563l-0.563-1.457h-3.657zM19.229 19.95c-0.875 0.92-2.069 1.38-3.582 1.38s-2.707-0.46-3.582-1.38-1.313-2.089-1.313-3.507c0-1.418 0.438-2.588 1.313-3.507s2.069-1.38 3.582-1.38c1.513 0 2.707 0.46 3.582 1.38s1.313 2.089 1.313 3.507-0.438 2.587-1.313 3.507zM13.359 16.443c0 2.951 0.762 4.427 2.288 4.427s2.288-1.476 2.288-4.427c0-1.444-0.169-2.536-0.506-3.277-0.338-0.754-0.931-1.131-1.781-1.131s-1.444 0.377-1.781 1.131c-0.338 0.741-0.506 1.833-0.506 3.277zM30.473 19.95c-0.875 0.92-2.069 1.38-3.582 1.38s-2.707-0.46-3.582-1.38c-0.875-0.92-1.313-2.089-1.313-3.507s0.437-2.588 1.313-3.507c0.875-0.92 2.069-1.38 3.582-1.38s2.707 0.46 3.582 1.38c0.875 0.92 1.313 2.089 1.313 3.507s-0.437 2.587-1.313 3.507zM24.604 16.443c0 2.951 0.762 4.427 2.288 4.427s2.288-1.476 2.288-4.427c0-1.444-0.169-2.536-0.506-3.277-0.338-0.754-0.931-1.131-1.781-1.131s-1.444 0.377-1.782 1.131c-0.338 0.741-0.506 1.833-0.506 3.277zM37.217 21.407c-1.138 0-2.082-0.39-2.832-1.169s-1.125-1.955-1.125-3.527 0.444-2.811 1.331-3.718c0.9-0.907 2.094-1.361 3.582-1.361 0.775 0 1.507 0.185 2.194 0.556v-4.868l-1.613-0.115v-0.479l4.013-0.326v14.279l1.594 0.077 0.019 0.441-3.919 0.23 0.038-1.725h-0.113c-0.313 0.537-0.756 0.958-1.331 1.265-0.529 0.278-1.156 0.441-1.821 0.441-0.006 0-0.012 0-0.017-0h0.001zM40.349 18.168v-5.271c-0.5-0.473-1.138-0.709-1.913-0.709-0.988 0-1.663 0.466-2.025 1.399-0.3 0.818-0.45 1.859-0.45 3.124 0 2.721 0.594 4.082 1.781 4.082 0.7 0 1.306-0.307 1.819-0.92 0.525-0.613 0.788-1.182 0.788-1.706zM45.296 11.134v-2.817l10.914-0.038v0.594l-8.101 11.27 6.77 0.038 0.656-2.108h0.619v2.798l-11.121 0.038v-0.537l8.176-11.327-6.638-0.038-0.656 2.128h-0.619zM63.862 14.431c0-1.559-0.531-2.338-1.594-2.338-1.113 0-1.788 0.996-2.025 2.99h3.582c0.025-0.256 0.037-0.473 0.037-0.652zM62.099 21.33c-1.338 0-2.425-0.447-3.263-1.342-0.825-0.894-1.238-2.076-1.238-3.546s0.431-2.651 1.294-3.546c0.875-0.895 1.981-1.342 3.319-1.342s2.338 0.294 3 0.882c0.663 0.575 0.994 1.38 0.994 2.415 0 0.294-0.025 0.601-0.075 0.92h-5.945v0.671c0 1.431 0.175 2.517 0.525 3.258 0.35 0.728 0.875 1.092 1.575 1.092 0.713 0 1.357-0.147 1.932-0.441 0.588-0.307 1.044-0.735 1.369-1.284 0.275 0.090 0.412 0.224 0.412 0.403 0 0.319-0.294 0.69-0.881 1.111-0.288 0.205-0.7 0.383-1.238 0.537-0.525 0.141-1.119 0.211-1.782 0.211zM71.009 14.028c0.213-0.69 0.6-1.278 1.163-1.763 0.575-0.486 1.094-0.729 1.556-0.729 0.475 0 0.794 0.121 0.956 0.364 0.162 0.23 0.244 0.422 0.244 0.575 0 0.524-0.188 0.901-0.562 1.131-0.25-0.205-0.625-0.307-1.125-0.307-0.487 0-0.975 0.16-1.463 0.479-0.487 0.307-0.731 0.645-0.731 1.016v5.769l1.688 0.115v0.441h-5.232v-0.441l1.238-0.096v-8.183l-1.519-0.077v-0.441l3.826-0.211-0.112 2.357h0.075zM84.113 19.95c-0.875 0.92-2.069 1.38-3.582 1.38s-2.707-0.46-3.582-1.38-1.313-2.089-1.313-3.507c0-1.418 0.437-2.588 1.313-3.507s2.069-1.38 3.582-1.38c1.513 0 2.707 0.46 3.582 1.38s1.313 2.089 1.313 3.507-0.438 2.587-1.313 3.507zM78.244 16.443c0 2.951 0.763 4.427 2.288 4.427s2.288-1.476 2.288-4.427c0-1.444-0.169-2.536-0.506-3.277-0.338-0.754-0.932-1.131-1.782-1.131s-1.444 0.377-1.781 1.131c-0.338 0.741-0.506 1.833-0.506 3.277z"></path>
</symbol>
</defs>
</svg>
